<?xml version="1.0" encoding="UTF-8" standalone="no"?>
<!-- Created with Inkscape (http://www.inkscape.org/) -->

<svg
   width="154.38972mm"
   height="64.17337mm"
   viewBox="0 0 154.38973 64.17337"
   version="1.1"
   id="svg5"
   xml:space="preserve"
   inkscape:version="1.2.1 (9c6d41e410, 2022-07-14)"
   sodipodi:docname="extendor.svg"
   xmlns:inkscape="http://www.inkscape.org/namespaces/inkscape"
   xmlns:sodipodi="http://sodipodi.sourceforge.net/DTD/sodipodi-0.dtd"
   xmlns="http://www.w3.org/2000/svg"
   xmlns:svg="http://www.w3.org/2000/svg"><sodipodi:namedview
     id="namedview7"
     pagecolor="#ffffff"
     bordercolor="#000000"
     borderopacity="0.25"
     inkscape:showpageshadow="2"
     inkscape:pageopacity="0.0"
     inkscape:pagecheckerboard="0"
     inkscape:deskcolor="#d1d1d1"
     inkscape:document-units="mm"
     showgrid="false"
     inkscape:zoom="1.1893044"
     inkscape:cx="385.09905"
     inkscape:cy="515.42734"
     inkscape:window-width="2880"
     inkscape:window-height="1694"
     inkscape:window-x="-11"
     inkscape:window-y="-11"
     inkscape:window-maximized="1"
     inkscape:current-layer="g3393-8" /><defs
     id="defs2" /><g
     inkscape:label="Layer 1"
     inkscape:groupmode="layer"
     id="layer1"
     transform="translate(-39.641558,-303.63984)"><rect
       style="fill:none;stroke:#ffffff;stroke-width:0.3;stroke-dasharray:none;stroke-opacity:1;paint-order:stroke fill markers"
       id="rect234-44-7"
       width="28"
       height="28"
       x="39.791557"
       y="339.66321"
       ry="2.7624502"
       inkscape:export-filename="..\Pictures\Extendor\extendor-symbols.svg"
       inkscape:export-xdpi="96"
       inkscape:export-ydpi="96" /><rect
       style="fill:none;stroke:#ffffff;stroke-width:0.3;stroke-dasharray:0.3, 0.3;stroke-dashoffset:1.29001;stroke-opacity:0.41133;paint-order:stroke fill markers"
       id="rect234-1-7-9-1"
       width="28"
       height="28"
       x="102.69221"
       y="339.66321"
       ry="2.6880801" /><rect
       style="fill:none;stroke:#ffffff;stroke-width:0.3;stroke-dasharray:0.3, 0.3;stroke-dashoffset:1.29001;stroke-opacity:0.41133;paint-order:stroke fill markers"
       id="rect234-1-1-2-8"
       width="28"
       height="28"
       x="134.05302"
       y="339.66321"
       ry="2.6880801" /><g
       style="clip-rule:evenodd;fill-rule:evenodd;stroke-linejoin:round;stroke-miterlimit:2"
       id="g2847-7-2"
       transform="matrix(0.05559393,0,0,0.05559393,25.422148,335.88876)"><g
         transform="translate(-1170.32,-574.137)"
         id="g2808-0-0"
         style="display:inline"><g
           transform="scale(4.16667)"
           id="g2752-6-5"><g
             transform="matrix(0.24,0,0,0.24,7.1233,8.08056)"
             id="g2750-7-9" /></g><g
           transform="matrix(1.2469117,0,0,1.2469117,1106.2526,505.77805)"
           id="g2758-0-3"
           style="fill:#33537d;fill-opacity:1"><g
             transform="matrix(0,-1,-1,0,478.5,154.538)"
             id="g2756-0-2"
             style="fill:#33537d;fill-opacity:1"><path
               d="m -99.615,-62.238 c -14.517,27.128 -29.034,54.256 -43.551,81.383 14.517,26.824 29.034,53.646 43.551,80.47 l 80.927,-80.927 z"
               style="fill:#33537d;fill-opacity:1;fill-rule:nonzero"
               id="path2754-6-6" /></g></g><g
           transform="matrix(1.2469117,0,0,1.2469117,1106.2526,505.77805)"
           id="g2764-0-3"><g
             transform="matrix(-0.708489,-0.705722,-0.705722,0.708489,445.305,296.499)"
             id="g2762-9-1"><path
               d="m -38.643,-93.55 c -4.236,17.627 -8.472,35.253 -12.708,52.878 4.237,18.878 8.472,37.756 12.709,56.634 7.357,-7.431 14.714,-14.86 22.071,-22.292 -7.357,-29.073 -14.714,-58.147 -22.072,-87.22"
               style="fill:#b2b2b2;fill-rule:nonzero"
               id="path2760-7-2" /></g></g><g
           transform="matrix(1.2469117,0,0,1.2469117,1106.2526,505.77805)"
           id="g2770-0-6"
           style="fill:#e59800;fill-opacity:1"><g
             transform="matrix(-0.711602,0.702583,0.702583,0.711602,474.303,296.533)"
             id="g2768-4-3"
             style="fill:#e59800;fill-opacity:1"><path
               d="M 38.799,-94.358 C 31.43,-65.037 24.061,-35.717 16.692,-6.397 24.061,1.023 31.43,8.441 38.799,15.861 43.064,-2.945 47.329,-21.751 51.595,-40.557 47.329,-58.49 43.063,-76.425 38.799,-94.358"
               style="fill:#e59800;fill-opacity:1;fill-rule:nonzero"
               id="path2766-0-2" /></g></g><g
           transform="matrix(1.2469117,0,0,1.2469117,1106.2526,505.77805)"
           id="g2776-6-8"
           style="fill:#33537d;fill-opacity:1"><g
             transform="translate(504.379,327.934)"
             id="g2774-9-8"
             style="fill:#33537d;fill-opacity:1"><path
               d="M 0,40.152 C -3.525,44.038 -7.051,47.923 -10.575,51.809 5.605,43.15 21.785,34.492 37.966,25.833 25.469,13.337 12.973,0.84 0.477,-11.657 -10.391,5.612 -21.257,22.882 -32.123,40.152 Z"
               style="fill:#33537d;fill-opacity:1;fill-rule:nonzero"
               id="path2772-0-5" /></g></g><g
           transform="matrix(1.2469117,0,0,1.2469117,1106.2526,505.77805)"
           id="g2782-9-7"
           style="fill:#33537d;fill-opacity:1"><g
             transform="translate(434.785,326.256)"
             id="g2780-6-0"
             style="fill:#33537d;fill-opacity:1"><path
               d="M 0,41.83 H 13.961 C 3.51,24.757 -6.941,7.684 -17.393,-9.389 c -12.3,12.3 -24.6,24.6 -36.899,36.9 14.601,7.903 29.203,15.805 43.804,23.708 z"
               style="fill:#33537d;fill-opacity:1;fill-rule:nonzero"
               id="path2778-2-3" /></g></g><g
           transform="matrix(1.2469117,0,0,1.2469117,1106.2526,505.77805)"
           id="g2788-7-1"
           style="fill:#e59800;fill-opacity:1"><g
             transform="translate(496.249,449.237)"
             id="g2786-9-5"
             style="fill:#e59800;fill-opacity:1"><path
               d="m 0,-78.655 c -3.124,3.418 -6.249,6.835 -9.374,10.253 V 0 c -21.202,-0.027 -42.404,-0.055 -63.605,-0.084 0.012,-21.845 0.024,-43.69 0.036,-65.535 4.882,-4.346 9.765,-8.69 14.648,-13.036 z"
               style="fill:#e59800;fill-opacity:1;fill-rule:nonzero"
               id="path2784-1-8" /></g></g><g
           transform="matrix(1.2469117,0,0,1.2469117,1106.2526,505.77805)"
           id="g2794-6-4"
           style="fill:#33537d;fill-opacity:1"><g
             transform="translate(542.347,431.508)"
             id="g2792-5-0"
             style="fill:#33537d;fill-opacity:1"><path
               d="M 0,-74.109 -52.702,0 C -35.126,-9.52 -17.549,-19.041 0.027,-28.562 0.019,-43.745 0.009,-58.926 0,-74.109"
               style="fill:#33537d;fill-opacity:1;fill-rule:nonzero"
               id="path2790-2-0" /></g></g><g
           transform="matrix(1.2469117,0,0,1.2469117,1106.2526,505.77805)"
           id="g2800-0-0"
           style="fill:#33537d;fill-opacity:1"><g
             transform="translate(380.519,431.509)"
             id="g2798-7-5"
             style="fill:#33537d;fill-opacity:1"><path
               d="M 0,-74.695 C 17.567,-49.796 35.135,-24.899 52.702,0 35.125,-9.521 17.549,-19.041 -0.027,-28.563 -0.019,-43.94 -0.009,-59.318 0,-74.695"
               style="fill:#33537d;fill-opacity:1;fill-rule:nonzero"
               id="path2796-6-1" /></g></g><g
           transform="matrix(1.2469117,0,0,1.2469117,1106.2526,505.77805)"
           id="g2806-5-0"
           style="fill:#e59800;fill-opacity:1"><g
             transform="translate(502.873,445.062)"
             id="g2804-1-2"
             style="fill:#e59800;fill-opacity:1"><path
               d="M 0,-15.037 C -3.257,-10.024 -6.515,-5.013 -9.772,0 c 0.01,-3.251 0.021,-6.502 0.032,-9.754 3.247,-1.761 6.494,-3.521 9.74,-5.283"
               style="fill:#e59800;fill-opacity:1;fill-rule:nonzero"
               id="path2802-5-3" /></g></g></g></g><rect
       style="fill:none;stroke:#ffffff;stroke-width:0.3;stroke-dasharray:none;stroke-opacity:1;paint-order:stroke fill markers"
       id="rect234-4-4-5"
       width="28"
       height="28"
       x="71.271721"
       y="339.66321"
       ry="2.7431524" /><rect
       style="fill:none;stroke:#ffffff;stroke-width:0.292853;stroke-dasharray:none;stroke-opacity:1;paint-order:stroke fill markers"
       id="rect234-4-1-2-5"
       width="154.03932"
       height="32.366253"
       x="39.84552"
       y="303.78625"
       ry="3.2366252"
       inkscape:export-filename="..\Pictures\Extendor\extendor-text.svg"
       inkscape:export-xdpi="96"
       inkscape:export-ydpi="96" /><g
       stroke-width="3"
       id="g3405-4-1-7"
       transform="matrix(0.06057655,0,0,0.06057655,69.005283,342.66717)"><g
         fill-rule="evenodd"
         id="g3393-8-8-8"><path
           d="m 315.48,74.025 c -15.574,-0.4227 -27.406,4.8236 -38.483,14.718 -7.6794,-6.2114 -21.19,-5.4595 -31.462,-6.9371 -42.463,-4.0473 -87.743,12.482 -109.42,49.224 -9.2578,14.343 -18.077,31.238 -15.742,49.307 1.5791,8.0326 12.139,9.0766 17.44,4.6875 1.5999,-0.31543 3.419,-5.1246 3.8295,-1.625 4.1621,12.115 12.997,22.225 19.352,33.25 3.2403,19.639 -8.4658,38.675 -2.1274,58.156 7.3067,13.235 24.506,15.099 37.78,13.875 10.598,-0.25671 24.271,1.5311 31.324,-7.6875 5.3265,-10.45 -4.7885,-20.859 -7.4914,-30.906 -1.71,-5.2771 -3.213,-13.255 1.5212,-16.75 4.9719,0.74097 8.822,5.345 14.126,5.3125 9.8928,2.0148 19.923,-1.3687 29.285,-1.9062 7.3125,11.319 0.61438,24.13 0.20081,36 -0.0706,7.4249 6.096,13.517 13.341,14.5 12.304,3.0763 25.084,1.4764 37.339,0.5625 8.9966,-1.9608 15.528,-11.966 11.286,-21.062 -3.782,-11.263 -9.1241,-23.416 -4.7072,-34.812 2.3501,-7.7512 9.5702,-12.184 16.779,-14.594 1.7194,-0.9328 7.8378,-5.3862 7.3471,-3.6916 -8.7995,9.8527 -20.621,21.585 -16.821,36.66 2.5047,10.739 8.3509,22.173 18.402,27.688 13.897,6.0406 32.245,-6.4928 28.315,-21.781 -1.2625,-4.535 -5.7784,-7.315 -9.1466,-9.7188 1.5061,-5.9684 8.6871,-8.4462 12.752,-12.531 14.177,-10.299 26.96,-23.547 31.465,-41.094 10.3,-33.358 0.89474,-73.533 -24.249,-99.654 -15.556,-13.636 -36.934,-15.365 -56.11,-18.408 -5.3689,-0.58075 -10.762,-0.90045 -16.131,-0.78125 z"
           id="path3389-1-7-7"
           style="display:inline;stroke:none;stroke-opacity:1" /><path
           d="m 385.41,219.16 c 8.7712,-7.5543 24.051,-23.922 22.445,-57.916 -1.606,-33.994 -20.72,-65.47 -37.295,-69.877 -16.576,-4.4066 -83.776,-27.699 -94.017,22.033 -10.241,49.732 31.451,66.1 42.064,64.211 10.613,-1.8886 21.324,-28.328 21.324,-28.328 0,0 -3.6681,28.958 -16.739,32.106 -13.071,3.1476 -46.044,-1.8886 -55.324,-38.401 -9.2793,-36.512 9.76,-46.585 -2.9791,-49.732 -16.968,-4.1925 -62.169,-10.072 -97.462,15.738 -35.293,25.81 -46.163,75.543 -36.958,70.506 9.2049,-5.0361 12.838,-21.404 15.292,-9.4428 2.4536,11.961 12.159,30.847 20.7,38.401 8.5407,7.5543 -3.7672,53.509 -1.492,61.693 2.2752,8.1838 15.614,10.702 25.686,10.702 10.072,0 32.765,0.62952 31.179,-6.2952 -1.5862,-6.9247 -9.7353,-19.515 -10.989,-32.735 -1.2541,-13.22 7.9806,-17.627 11.787,-16.997 3.8068,0.62952 5.9383,6.0759 21.701,6.2952 15.112,0.21027 14.9,-4.4067 21.225,-3.7771 6.325,0.62952 10.548,10.072 11.084,21.404 0.53534,11.331 -3.4252,20.774 -3.1278,27.07 0.29742,6.2952 45.682,7.5543 47.214,0 1.5317,-7.5543 -6.4984,-17.627 -6.9446,-27.07 -0.44614,-9.4428 -0.0793,-28.328 11.644,-33.365 11.723,-5.0362 23.778,-16.368 31.689,-8.8133 7.9112,7.5543 -19.674,23.292 -19.649,37.142 0.0248,13.85 12.67,28.328 15.817,28.328 3.1476,0 16.189,-3.7771 16.462,-11.331 0.27264,-7.5543 -10.31,-5.0362 -10.727,-13.85 -0.41638,-8.8133 17.255,-19.831 26.39,-27.699 z"
           fill="#ffffff"
           id="path3391-6-2-7"
           style="display:inline;fill:#33537d;fill-opacity:1" /><path
           d="m 383.45,154.62 c 0,3.4768 -2.8184,6.2952 -6.2952,6.2952 -3.4768,0 -6.2952,-2.8184 -6.2952,-6.2952 0,-3.4768 2.8185,-6.2952 6.2952,-6.2952 3.4768,0 6.2952,2.8185 6.2952,6.2952 v 3e-5 z"
           stroke-linecap="round"
           stroke-linejoin="round"
           id="path3395-5-0-7" /></g><g
         fill="#ffffff"
         fill-rule="evenodd"
         stroke="#000000"
         id="g3403-6-6-6" /></g><g
       transform="matrix(0.15995445,0,0,0.15995445,112.66351,189.33337)"
       fill="#bababa"
       id="g6285-7-8-9"
       style="fill:#d4d4d4;fill-opacity:1"><rect
         x="20.653999"
         y="1002.7"
         width="8.6915998"
         height="49.307999"
         ry="2.3223"
         id="rect6281-7-8-0"
         style="fill:#d4d4d4;fill-opacity:1" /><rect
         transform="rotate(90)"
         x="1023"
         y="-49.653999"
         width="8.6915998"
         height="49.307999"
         ry="2.3223"
         id="rect6283-7-3-2"
         style="fill:#d4d4d4;fill-opacity:1" /></g><g
       transform="matrix(0.15995445,0,0,0.15995445,144.28787,189.33337)"
       fill="#bababa"
       id="g6285-5-3-7"
       style="fill:#d4d4d4;fill-opacity:1"><rect
         x="20.653999"
         y="1002.7"
         width="8.6915998"
         height="49.307999"
         ry="2.3223"
         id="rect6281-8-9-0"
         style="fill:#d4d4d4;fill-opacity:1" /><rect
         transform="rotate(90)"
         x="1023"
         y="-49.653999"
         width="8.6915998"
         height="49.307999"
         ry="2.3223"
         id="rect6283-2-3-6"
         style="fill:#d4d4d4;fill-opacity:1" /></g><g
       transform="matrix(0.15995445,0,0,0.15995445,175.91223,189.33337)"
       fill="#bababa"
       id="g6285-3-6-0"
       style="fill:#d4d4d4;fill-opacity:1"><rect
         x="20.653999"
         y="1002.7"
         width="8.6915998"
         height="49.307999"
         ry="2.3223"
         id="rect6281-9-6-9"
         style="fill:#d4d4d4;fill-opacity:1" /><rect
         transform="rotate(90)"
         x="1023"
         y="-49.653999"
         width="8.6915998"
         height="49.307999"
         ry="2.3223"
         id="rect6283-6-5-2"
         style="fill:#d4d4d4;fill-opacity:1" /></g><g
       aria-label="EXTENDOR"
       id="text7486-9-0"
       style="font-size:21.4449px;font-family:Comfortaa;-inkscape-font-specification:Comfortaa;clip-rule:evenodd;display:inline;fill:#8eabd2;fill-opacity:1;stroke-width:0.364731;stroke-linejoin:round;stroke-miterlimit:2;stroke-dasharray:0.364731, 0.364731;paint-order:fill markers stroke"
       transform="translate(3.5934906,143.93743)"><path
         d="m 52.914512,184.40619 q -0.278784,0 -0.471788,-0.17156 -0.171559,-0.193 -0.171559,-0.47179 v -15.46177 q 0,-0.27879 0.171559,-0.45034 0.193004,-0.19301 0.471788,-0.19301 h 10.314997 q 0.257339,0 0.450343,0.19301 0.193004,0.17155 0.193004,0.45034 0,0.25734 -0.193004,0.45034 -0.193004,0.19301 -0.450343,0.19301 h -9.67165 v 6.43347 h 7.098262 q 0.278784,0 0.450343,0.193 0.193004,0.17156 0.193004,0.45034 0,0.27879 -0.193004,0.47179 -0.171559,0.193 -0.450343,0.193 h -7.098262 v 6.43347 h 9.67165 q 0.257339,0 0.450343,0.19301 0.193004,0.193 0.193004,0.45034 0,0.27879 -0.193004,0.47179 -0.193004,0.17156 -0.450343,0.17156 z"
         style="font-weight:300;-inkscape-font-specification:'Comfortaa Light';fill:#8eabd2;fill-opacity:1"
         id="path10629-7" /><path
         d="m 66.446262,184.40619 q -0.257339,0 -0.450343,-0.15012 -0.171559,-0.17155 -0.193004,-0.40745 -0.02144,-0.23589 0.150114,-0.49323 l 5.725789,-7.91317 0.621902,-0.45034 5.082441,-7.05537 q 0.214449,-0.27879 0.536123,-0.27879 0.300228,0 0.450343,0.19301 0.150114,0.17155 0.171559,0.40745 0.04289,0.23589 -0.08578,0.40745 l -5.29689,7.31271 -0.600457,0.4289 -5.618564,7.7845 q -0.193004,0.21445 -0.493233,0.21445 z m 11.880475,0 q -0.107225,0 -0.257339,-0.0429 -0.150114,-0.0643 -0.235894,-0.17156 l -5.575674,-7.72016 -0.579012,-0.40746 -5.339781,-7.39849 q -0.150114,-0.21445 -0.150114,-0.45034 0.02144,-0.23589 0.171559,-0.38601 0.17156,-0.17156 0.428898,-0.17156 0.321674,0 0.536123,0.27879 l 5.232556,7.22693 0.450343,0.23589 5.768678,7.95606 q 0.171559,0.193 0.150114,0.45034 0,0.2359 -0.171559,0.4289 -0.150114,0.17156 -0.428898,0.17156 z"
         style="font-weight:300;-inkscape-font-specification:'Comfortaa Light';fill:#8eabd2;fill-opacity:1"
         id="path10631-1" /><path
         d="m 86.840366,184.40619 q -0.278784,0 -0.471788,-0.17156 -0.171559,-0.193 -0.171559,-0.47179 v -16.10512 h 1.286694 v 16.10512 q 0,0.27879 -0.193004,0.47179 -0.171559,0.17156 -0.450343,0.17156 z m -6.068907,-15.59044 q -0.257339,0 -0.428898,-0.15012 -0.150114,-0.17156 -0.150114,-0.4289 0,-0.25733 0.150114,-0.40745 0.171559,-0.17156 0.428898,-0.17156 h 12.137814 q 0.257339,0 0.407453,0.17156 0.171559,0.15012 0.171559,0.40745 0,0.25734 -0.171559,0.4289 -0.150114,0.15012 -0.407453,0.15012 z"
         style="font-weight:300;-inkscape-font-specification:'Comfortaa Light';fill:#8eabd2;fill-opacity:1"
         id="path10633-5" /><path
         d="m 96.597789,184.40619 q -0.278784,0 -0.471788,-0.17156 -0.171559,-0.193 -0.171559,-0.47179 v -15.46177 q 0,-0.27879 0.171559,-0.45034 0.193004,-0.19301 0.471788,-0.19301 h 10.315001 q 0.25733,0 0.45034,0.19301 0.193,0.17155 0.193,0.45034 0,0.25734 -0.193,0.45034 -0.19301,0.19301 -0.45034,0.19301 h -9.671654 v 6.43347 h 7.098264 q 0.27878,0 0.45034,0.193 0.193,0.17156 0.193,0.45034 0,0.27879 -0.193,0.47179 -0.17156,0.193 -0.45034,0.193 h -7.098264 v 6.43347 h 9.671654 q 0.25733,0 0.45034,0.19301 0.193,0.193 0.193,0.45034 0,0.27879 -0.193,0.47179 -0.19301,0.17156 -0.45034,0.17156 z"
         style="font-weight:300;-inkscape-font-specification:'Comfortaa Light';fill:#8eabd2;fill-opacity:1"
         id="path10635-3" /><path
         d="m 111.30901,184.40619 q -0.27879,0 -0.47179,-0.17156 -0.17156,-0.193 -0.17156,-0.47179 v -15.46177 q 0,-0.27879 0.17156,-0.45034 0.193,-0.19301 0.47179,-0.19301 0.30023,0 0.49323,0.21445 l 10.89401,14.17508 v -13.74618 q 0,-0.27879 0.17156,-0.45034 0.193,-0.19301 0.47179,-0.19301 0.25734,0 0.45034,0.19301 0.193,0.17155 0.193,0.45034 v 15.46177 q 0,0.27879 -0.193,0.47179 -0.193,0.17156 -0.45034,0.17156 -0.15012,0 -0.27879,-0.0429 -0.10722,-0.0643 -0.193,-0.15012 l -10.91545,-14.19652 v 13.74618 q 0,0.27879 -0.19301,0.47179 -0.17156,0.17156 -0.45034,0.17156 z"
         style="font-weight:300;-inkscape-font-specification:'Comfortaa Light';fill:#8eabd2;fill-opacity:1"
         id="path10637-7" /><path
         d="m 128.91525,184.40619 q -0.27878,0 -0.47179,-0.17156 -0.17156,-0.193 -0.17156,-0.47179 v -15.46177 q 0,-0.30023 0.17156,-0.47179 0.19301,-0.17156 0.47179,-0.17156 h 3.86008 q 1.84427,0 3.36685,0.6219 1.54404,0.60046 2.65917,1.73704 1.13658,1.11514 1.73704,2.63772 0.6219,1.52259 0.6219,3.36685 0,1.84426 -0.6219,3.3883 -0.60046,1.52259 -1.73704,2.65916 -1.11513,1.11514 -2.65917,1.73704 -1.52258,0.60046 -3.36685,0.60046 z m 0.64335,-1.15803 h 3.21673 q 2.08016,0 3.66708,-0.94357 1.60837,-0.94358 2.50906,-2.57339 0.92213,-1.62981 0.92213,-3.70997 0,-2.08015 -0.92213,-3.68852 -0.90069,-1.62981 -2.50906,-2.57339 -1.58692,-0.94357 -3.66708,-0.94357 h -3.21673 z"
         style="font-weight:300;-inkscape-font-specification:'Comfortaa Light';fill:#8eabd2;fill-opacity:1"
         id="path10639-4" /><path
         d="m 151.90417,184.62064 q -1.84426,0 -3.40974,-0.64335 -1.56548,-0.64335 -2.74495,-1.80137 -1.15802,-1.17947 -1.80137,-2.74495 -0.64335,-1.56548 -0.64335,-3.40974 0,-1.84426 0.64335,-3.38829 0.64335,-1.56548 1.80137,-2.7235 1.17947,-1.17947 2.74495,-1.82282 1.56548,-0.64335 3.40974,-0.64335 1.84426,0 3.38829,0.64335 1.56548,0.64335 2.72351,1.82282 1.17947,1.15802 1.82281,2.7235 0.64335,1.54403 0.64335,3.38829 0,1.84426 -0.64335,3.40974 -0.64334,1.56548 -1.82281,2.74495 -1.15803,1.15802 -2.72351,1.80137 -1.54403,0.64335 -3.38829,0.64335 z m 0,-1.2867 q 1.54403,0 2.87362,-0.53612 1.32958,-0.55757 2.31605,-1.54403 1.00791,-1.00791 1.54403,-2.3375 0.55757,-1.32958 0.55757,-2.89506 0,-1.54403 -0.55757,-2.87361 -0.53612,-1.32959 -1.54403,-2.31605 -0.98647,-1.00791 -2.31605,-1.54404 -1.32959,-0.55756 -2.87362,-0.55756 -1.56548,0 -2.89506,0.55756 -1.32959,0.53613 -2.3375,1.54404 -0.98646,0.98646 -1.54403,2.31605 -0.53612,1.32958 -0.53612,2.87361 0,1.56548 0.53612,2.89506 0.55757,1.32959 1.54403,2.3375 1.00791,0.98646 2.3375,1.54403 1.32958,0.53612 2.89506,0.53612 z"
         style="font-weight:300;-inkscape-font-specification:'Comfortaa Light';fill:#8eabd2;fill-opacity:1"
         id="path10641-2" /><path
         d="m 164.55665,184.40619 q -0.27878,0 -0.47178,-0.17156 -0.17156,-0.193 -0.17156,-0.47179 v -15.46177 q 0,-0.30023 0.17156,-0.47179 0.193,-0.17156 0.47178,-0.17156 h 4.09598 q 1.56548,0 2.76639,0.66479 1.22236,0.64335 1.9086,1.77993 0.68624,1.13658 0.68624,2.63772 0,1.45826 -0.68624,2.59484 -0.68624,1.13658 -1.9086,1.77992 -1.20091,0.64335 -2.76639,0.64335 H 165.2 v 6.00457 q 0,0.27879 -0.17156,0.47179 -0.17156,0.17156 -0.47179,0.17156 z m 9.00686,0 q -0.23589,0 -0.36456,-0.0858 -0.10722,-0.10723 -0.21445,-0.25734 l -4.26753,-6.81948 1.32958,-0.30023 4.05309,6.47636 q 0.27878,0.4289 0.10722,0.70769 -0.15011,0.27878 -0.64335,0.27878 z M 165.2,176.47158 h 3.45263 q 1.20092,0 2.1016,-0.47179 0.92213,-0.49323 1.43681,-1.32959 0.53612,-0.83635 0.53612,-1.93004 0,-1.11513 -0.53612,-1.97293 -0.51468,-0.85779 -1.43681,-1.32958 -0.90068,-0.49323 -2.1016,-0.49323 H 165.2 Z"
         style="font-weight:300;-inkscape-font-specification:'Comfortaa Light';fill:#8eabd2;fill-opacity:1"
         id="path10643-8" /></g><rect
       style="fill:none;stroke:#ffffff;stroke-width:0.3;stroke-dasharray:0.3, 0.3;stroke-dashoffset:1.29001;stroke-opacity:0.41133;paint-order:stroke fill markers"
       id="rect234-1-2-3-5"
       width="28"
       height="28"
       x="165.88127"
       y="339.66321"
       ry="2.6880801" /></g></svg>
